<svg xmlns="http://www.w3.org/2000/svg" xmlns:xlink="http://www.w3.org/1999/xlink" id="Layer_1" width="128" height="128" x="0" y="0" baseProfile="tiny" version="1.1" viewBox="0 0 128 128" xml:space="preserve"><g><g><g><g><line x1="85" x2="100" y1="64" y2="64" fill="none" stroke="#fff" stroke-miterlimit="10" stroke-width="2"/><g><polygon fill="#fff" points="93.763 71.971 92.398 70.506 99.622 63.793 92.398 57.078 93.763 55.613 102.559 63.793"/></g></g><rect width="45" height="44" x="71" y="42" fill="none" stroke="#fff" stroke-miterlimit="10" stroke-width="2"/></g><g><g><line x1="44" x2="29" y1="64" y2="64" fill="none" stroke="#fff" stroke-miterlimit="10" stroke-width="2"/><g><polygon fill="#fff" points="35.237 55.611 36.602 57.076 29.378 63.789 36.602 70.504 35.237 71.969 26.441 63.789"/></g></g><rect width="45" height="44" x="12" y="42" fill="none" stroke="#fff" stroke-miterlimit="10" stroke-width="2"/></g></g><g><g><line x1="64" x2="64" y1="37" y2="23" fill="none" stroke="#fff" stroke-miterlimit="10" stroke-width="2"/><g><polygon fill="#fff" points="72.471 29.796 71.006 31.16 64.293 23.937 57.578 31.16 56.113 29.796 64.293 21"/></g></g><polyline fill="none" stroke="#fff" stroke-miterlimit="10" stroke-width=".5" points="33 38 33 15 95 15 95 38"/></g><g><g><line x1="64" x2="64" y1="91" y2="105" fill="none" stroke="#fff" stroke-miterlimit="10" stroke-width="2"/><g><polygon fill="#fff" points="56.111 98.204 57.576 96.84 64.289 104.063 71.004 96.84 72.469 98.204 64.289 107"/></g></g><polyline fill="none" stroke="#fff" stroke-miterlimit="10" stroke-width=".5" points="33 90 33 113 95 113 95 90"/></g></g></svg>